# MagicaVoxel @ Ephtracy

# group
o 

# material
mtllib livre_fermer.mtl
usemtl palette

# normals
vn -1 0 0
vn 1 0 0
vn 0 0 1
vn 0 0 -1
vn 0 -1 0
vn 0 1 0

# texcoords
vt 0.869141 0.5
vt 0.876953 0.5
vt 0.958984 0.5

# verts
v 1.9 2.1 -1.2
v 1.9 2.1 -2.8
v 1.9 2.5 -1.2
v 1.9 2.5 -2.8
v 2 2 -1.2
v 2 2 -2.8
v 2 2.1 -1.2
v 2 2.1 -2.8
v 2 2.5 -1.2
v 2 2.5 -2.8
v 2 2.6 -1.2
v 2 2.6 -2.8
v 2 2.2 -1.2
v 2 2.2 -1.3
v 2 2.2 -2.7
v 2 2.2 -2.8
v 2 2.4 -1.2
v 2 2.4 -1.3
v 2 2.4 -2.7
v 2 2.4 -2.8
v 2.1 2.1 -1.2
v 2.1 2.1 -1.3
v 2.1 2.1 -2.7
v 2.1 2.1 -2.8
v 2.1 2.2 -1.2
v 2.1 2.2 -1.3
v 2.1 2.2 -2.7
v 2.1 2.2 -2.8
v 2.1 2.4 -1.2
v 2.1 2.4 -1.3
v 2.1 2.4 -2.7
v 2.1 2.4 -2.8
v 2.1 2.5 -1.2
v 2.1 2.5 -1.3
v 2.1 2.5 -2.7
v 2.1 2.5 -2.8
v 3.2 2.1 -1.3
v 3.2 2.1 -2.7
v 3.2 2.5 -1.3
v 3.2 2.5 -2.7
v 3.3 2 -1.2
v 3.3 2 -2.8
v 3.3 2.1 -1.2
v 3.3 2.1 -2.8
v 3.3 2.5 -1.2
v 3.3 2.5 -2.8
v 3.3 2.6 -1.2
v 3.3 2.6 -2.8
v 1.9 2.1 -1.2
v 1.9 2.5 -1.2
v 2 2 -1.2
v 2 2.1 -1.2
v 2 2.2 -1.2
v 2 2.4 -1.2
v 2 2.5 -1.2
v 2 2.6 -1.2
v 2.1 2.1 -1.2
v 2.1 2.2 -1.2
v 2.1 2.4 -1.2
v 2.1 2.5 -1.2
v 3.3 2 -1.2
v 3.3 2.1 -1.2
v 3.3 2.5 -1.2
v 3.3 2.6 -1.2
v 2 2.2 -1.3
v 2 2.4 -1.3
v 2.1 2.1 -1.3
v 2.1 2.2 -1.3
v 2.1 2.4 -1.3
v 2.1 2.5 -1.3
v 3.2 2.1 -1.3
v 3.2 2.5 -1.3
v 2 2.2 -2.7
v 2 2.4 -2.7
v 2.1 2.1 -2.7
v 2.1 2.2 -2.7
v 2.1 2.4 -2.7
v 2.1 2.5 -2.7
v 3.2 2.1 -2.7
v 3.2 2.5 -2.7
v 1.9 2.1 -2.8
v 1.9 2.5 -2.8
v 2 2 -2.8
v 2 2.1 -2.8
v 2 2.2 -2.8
v 2 2.4 -2.8
v 2 2.5 -2.8
v 2 2.6 -2.8
v 2.1 2.1 -2.8
v 2.1 2.2 -2.8
v 2.1 2.4 -2.8
v 2.1 2.5 -2.8
v 3.3 2 -2.8
v 3.3 2.1 -2.8
v 3.3 2.5 -2.8
v 3.3 2.6 -2.8
v 2 2 -1.2
v 3.3 2 -1.2
v 2.1 2 -1.3
v 3.2 2 -1.3
v 2.2 2 -1.4
v 3.1 2 -1.4
v 2.2 2 -2.6
v 3.1 2 -2.6
v 2.1 2 -2.7
v 3.2 2 -2.7
v 2 2 -2.8
v 3.3 2 -2.8
v 1.9 2.1 -1.2
v 2 2.1 -1.2
v 1.9 2.1 -2.8
v 2 2.1 -2.8
v 2 2.4 -1.2
v 2.1 2.4 -1.2
v 2 2.4 -1.3
v 2.1 2.4 -1.3
v 2 2.4 -2.7
v 2.1 2.4 -2.7
v 2 2.4 -2.8
v 2.1 2.4 -2.8
v 2.1 2.5 -1.2
v 3.3 2.5 -1.2
v 2.1 2.5 -1.3
v 3.2 2.5 -1.3
v 2.1 2.5 -2.7
v 3.2 2.5 -2.7
v 2.1 2.5 -2.8
v 3.3 2.5 -2.8
v 2.1 2.1 -1.2
v 3.3 2.1 -1.2
v 2.1 2.1 -1.3
v 3.2 2.1 -1.3
v 2.1 2.1 -2.7
v 3.2 2.1 -2.7
v 2.1 2.1 -2.8
v 3.3 2.1 -2.8
v 2 2.2 -1.2
v 2.1 2.2 -1.2
v 2 2.2 -1.3
v 2.1 2.2 -1.3
v 2 2.2 -2.7
v 2.1 2.2 -2.7
v 2 2.2 -2.8
v 2.1 2.2 -2.8
v 1.9 2.5 -1.2
v 2 2.5 -1.2
v 1.9 2.5 -2.8
v 2 2.5 -2.8
v 2 2.6 -1.2
v 3.3 2.6 -1.2
v 2.1 2.6 -1.3
v 3.2 2.6 -1.3
v 2.2 2.6 -1.4
v 3.1 2.6 -1.4
v 2.2 2.6 -2.6
v 3.1 2.6 -2.6
v 2.1 2.6 -2.7
v 3.2 2.6 -2.7
v 2 2.6 -2.8
v 3.3 2.6 -2.8

# faces
f 3/2/1 2/2/1 1/2/1
f 4/2/1 2/2/1 3/2/1
f 7/2/1 6/2/1 5/2/1
f 8/2/1 6/2/1 7/2/1
f 11/2/1 10/2/1 9/2/1
f 12/2/1 10/2/1 11/2/1
f 13/2/2 14/2/2 17/2/2
f 17/2/2 14/2/2 18/2/2
f 15/2/2 16/2/2 19/2/2
f 19/2/2 16/2/2 20/2/2
f 21/2/2 22/2/2 25/2/2
f 25/2/2 22/2/2 26/2/2
f 23/2/2 24/2/2 27/2/2
f 27/2/2 24/2/2 28/2/2
f 29/2/2 30/2/2 33/2/2
f 33/2/2 30/2/2 34/2/2
f 31/2/2 32/2/2 35/2/2
f 35/2/2 32/2/2 36/2/2
f 37/3/2 38/3/2 39/3/2
f 39/3/2 38/3/2 40/3/2
f 41/2/2 42/2/2 43/2/2
f 43/2/2 42/2/2 44/2/2
f 45/2/2 46/2/2 47/2/2
f 47/2/2 46/2/2 48/2/2
f 52/2/3 50/2/3 49/2/3
f 53/2/3 50/2/3 52/2/3
f 54/2/3 50/2/3 53/2/3
f 55/2/3 50/2/3 54/2/3
f 57/2/3 52/2/3 51/2/3
f 57/2/3 53/2/3 52/2/3
f 58/2/3 53/2/3 57/2/3
f 59/2/3 56/2/3 55/2/3
f 59/2/3 55/2/3 54/2/3
f 60/2/3 56/2/3 59/2/3
f 61/2/3 57/2/3 51/2/3
f 62/2/3 57/2/3 61/2/3
f 63/2/3 56/2/3 60/2/3
f 64/2/3 56/2/3 63/2/3
f 68/3/3 66/3/3 65/3/3
f 69/3/3 66/3/3 68/3/3
f 71/3/3 68/3/3 67/3/3
f 71/3/3 70/3/3 69/3/3
f 71/3/3 69/3/3 68/3/3
f 72/3/3 70/3/3 71/3/3
f 73/3/4 74/3/4 76/3/4
f 76/3/4 74/3/4 77/3/4
f 75/3/4 76/3/4 79/3/4
f 77/3/4 78/3/4 79/3/4
f 76/3/4 77/3/4 79/3/4
f 79/3/4 78/3/4 80/3/4
f 81/2/4 82/2/4 84/2/4
f 84/2/4 82/2/4 85/2/4
f 85/2/4 82/2/4 86/2/4
f 86/2/4 82/2/4 87/2/4
f 83/2/4 84/2/4 89/2/4
f 84/2/4 85/2/4 89/2/4
f 89/2/4 85/2/4 90/2/4
f 87/2/4 88/2/4 91/2/4
f 86/2/4 87/2/4 91/2/4
f 91/2/4 88/2/4 92/2/4
f 83/2/4 89/2/4 93/2/4
f 93/2/4 89/2/4 94/2/4
f 92/2/4 88/2/4 95/2/4
f 95/2/4 88/2/4 96/2/4
f 99/2/5 98/2/5 97/2/5
f 100/2/5 98/2/5 99/2/5
f 101/1/5 100/1/5 99/1/5
f 102/1/5 100/1/5 101/1/5
f 103/1/5 101/1/5 99/1/5
f 103/2/5 102/2/5 101/2/5
f 104/1/5 100/1/5 102/1/5
f 104/2/5 102/2/5 103/2/5
f 105/2/5 99/2/5 97/2/5
f 105/1/5 103/1/5 99/1/5
f 105/1/5 104/1/5 103/1/5
f 106/1/5 100/1/5 104/1/5
f 106/1/5 104/1/5 105/1/5
f 106/2/5 98/2/5 100/2/5
f 107/2/5 105/2/5 97/2/5
f 107/2/5 106/2/5 105/2/5
f 108/2/5 98/2/5 106/2/5
f 108/2/5 106/2/5 107/2/5
f 111/2/5 110/2/5 109/2/5
f 112/2/5 110/2/5 111/2/5
f 115/2/5 114/2/5 113/2/5
f 116/2/5 114/2/5 115/2/5
f 119/2/5 118/2/5 117/2/5
f 120/2/5 118/2/5 119/2/5
f 123/2/5 122/2/5 121/2/5
f 124/2/5 122/2/5 123/2/5
f 126/2/5 122/2/5 124/2/5
f 127/2/5 126/2/5 125/2/5
f 128/2/5 122/2/5 126/2/5
f 128/2/5 126/2/5 127/2/5
f 129/2/6 130/2/6 131/2/6
f 131/2/6 130/2/6 132/2/6
f 132/2/6 130/2/6 134/2/6
f 133/2/6 134/2/6 135/2/6
f 134/2/6 130/2/6 136/2/6
f 135/2/6 134/2/6 136/2/6
f 137/2/6 138/2/6 139/2/6
f 139/2/6 138/2/6 140/2/6
f 141/2/6 142/2/6 143/2/6
f 143/2/6 142/2/6 144/2/6
f 145/2/6 146/2/6 147/2/6
f 147/2/6 146/2/6 148/2/6
f 149/2/6 150/2/6 151/2/6
f 151/2/6 150/2/6 152/2/6
f 151/1/6 152/1/6 153/1/6
f 153/1/6 152/1/6 154/1/6
f 151/1/6 153/1/6 155/1/6
f 153/2/6 154/2/6 155/2/6
f 154/1/6 152/1/6 156/1/6
f 155/2/6 154/2/6 156/2/6
f 149/2/6 151/2/6 157/2/6
f 151/1/6 155/1/6 157/1/6
f 155/1/6 156/1/6 157/1/6
f 156/1/6 152/1/6 158/1/6
f 157/1/6 156/1/6 158/1/6
f 152/2/6 150/2/6 158/2/6
f 149/2/6 157/2/6 159/2/6
f 157/2/6 158/2/6 159/2/6
f 158/2/6 150/2/6 160/2/6
f 159/2/6 158/2/6 160/2/6
