# MagicaVoxel @ Ephtracy

# group
o 

# material
mtllib sceau-1.mtl
usemtl palette

# normals
vn -1 0 0
vn 1 0 0
vn 0 0 1
vn 0 0 -1
vn 0 -1 0
vn 0 1 0

# texcoords
vt 0.416016 0.5
vt 0.419922 0.5

# verts
v -6 0.2 1.1
v -6 0.2 -1.1
v -6 0.3 1.1
v -6 0.3 -1
v -6 0.4 -1
v -6 0.4 -1.1
v -5.9 0.3 -0.9
v -5.9 0.3 -1
v -5.9 0.4 -0.9
v -5.9 0.4 -1
v -5.8 0.3 -0.8
v -5.8 0.3 -0.9
v -5.8 0.4 -0.8
v -5.8 0.4 -0.9
v -5.7 0.3 -0.7
v -5.7 0.3 -0.8
v -5.7 0.4 -0.7
v -5.7 0.4 -0.8
v -5.6 0.3 -0.6
v -5.6 0.3 -0.7
v -5.6 0.4 -0.6
v -5.6 0.4 -0.7
v -5.5 0.3 -0.5
v -5.5 0.3 -0.6
v -5.5 0.4 -0.5
v -5.5 0.4 -0.6
v -5.4 0.3 -0.4
v -5.4 0.3 -0.5
v -5.4 0.4 -0.4
v -5.4 0.4 -0.5
v -5.3 0.3 -0.3
v -5.3 0.3 -0.4
v -5.3 0.4 -0.3
v -5.3 0.4 -0.4
v -5.2 0.3 -0.2
v -5.2 0.3 -0.3
v -5.2 0.4 -0.2
v -5.2 0.4 -0.3
v -5.1 0.3 -0.1
v -5.1 0.3 -0.2
v -5.1 0.4 -0.1
v -5.1 0.4 -0.2
v -5 0.3 -2.08616e-007
v -5 0.3 -0.1
v -5 0.4 -2.08616e-007
v -5 0.4 -0.1
v -3.6 0.3 -2.08616e-007
v -3.6 0.3 -0.1
v -3.6 0.4 -2.08616e-007
v -3.6 0.4 -0.1
v -3.5 0.3 -0.1
v -3.5 0.3 -0.2
v -3.5 0.4 -0.1
v -3.5 0.4 -0.2
v -3.4 0.3 -0.2
v -3.4 0.3 -0.3
v -3.4 0.4 -0.2
v -3.4 0.4 -0.3
v -3.3 0.3 -0.3
v -3.3 0.3 -0.4
v -3.3 0.4 -0.3
v -3.3 0.4 -0.4
v -3.2 0.3 -0.4
v -3.2 0.3 -0.5
v -3.2 0.4 -0.4
v -3.2 0.4 -0.5
v -3.1 0.3 -0.5
v -3.1 0.3 -0.6
v -3.1 0.4 -0.5
v -3.1 0.4 -0.6
v -3 0.3 -0.6
v -3 0.3 -0.7
v -3 0.4 -0.6
v -3 0.4 -0.7
v -2.9 0.3 -0.7
v -2.9 0.3 -0.8
v -2.9 0.4 -0.7
v -2.9 0.4 -0.8
v -2.8 0.3 -0.8
v -2.8 0.3 -0.9
v -2.8 0.4 -0.8
v -2.8 0.4 -0.9
v -2.7 0.3 -0.9
v -2.7 0.3 -1
v -2.7 0.4 -0.9
v -2.7 0.4 -1
v -2.6 0.2 1.1
v -2.6 0.2 -1.1
v -2.6 0.3 1.1
v -2.6 0.3 -1
v -2.6 0.4 -1
v -2.6 0.4 -1.1
v -6 0.2 1.1
v -6 0.3 1.1
v -2.6 0.2 1.1
v -2.6 0.3 1.1
v -5 0.3 -2.08616e-007
v -5 0.4 -2.08616e-007
v -4.9 0.3 -2.08616e-007
v -3.7 0.3 -2.08616e-007
v -3.6 0.3 -2.08616e-007
v -3.6 0.4 -2.08616e-007
v -5.1 0.3 -0.1
v -5.1 0.4 -0.1
v -5 0.3 -0.1
v -5 0.4 -0.1
v -3.6 0.3 -0.1
v -3.6 0.4 -0.1
v -3.5 0.3 -0.1
v -3.5 0.4 -0.1
v -5.2 0.3 -0.2
v -5.2 0.4 -0.2
v -5.1 0.3 -0.2
v -5.1 0.4 -0.2
v -3.5 0.3 -0.2
v -3.5 0.4 -0.2
v -3.4 0.3 -0.2
v -3.4 0.4 -0.2
v -5.3 0.3 -0.3
v -5.3 0.4 -0.3
v -5.2 0.3 -0.3
v -5.2 0.4 -0.3
v -3.4 0.3 -0.3
v -3.4 0.4 -0.3
v -3.3 0.3 -0.3
v -3.3 0.4 -0.3
v -5.4 0.3 -0.4
v -5.4 0.4 -0.4
v -5.3 0.3 -0.4
v -5.3 0.4 -0.4
v -3.3 0.3 -0.4
v -3.3 0.4 -0.4
v -3.2 0.3 -0.4
v -3.2 0.4 -0.4
v -5.5 0.3 -0.5
v -5.5 0.4 -0.5
v -5.4 0.3 -0.5
v -5.4 0.4 -0.5
v -3.2 0.3 -0.5
v -3.2 0.4 -0.5
v -3.1 0.3 -0.5
v -3.1 0.4 -0.5
v -5.6 0.3 -0.6
v -5.6 0.4 -0.6
v -5.5 0.3 -0.6
v -5.5 0.4 -0.6
v -3.1 0.3 -0.6
v -3.1 0.4 -0.6
v -3 0.3 -0.6
v -3 0.4 -0.6
v -5.7 0.3 -0.7
v -5.7 0.4 -0.7
v -5.6 0.3 -0.7
v -5.6 0.4 -0.7
v -3 0.3 -0.7
v -3 0.4 -0.7
v -2.9 0.3 -0.7
v -2.9 0.4 -0.7
v -5.8 0.3 -0.8
v -5.8 0.4 -0.8
v -5.7 0.3 -0.8
v -5.7 0.4 -0.8
v -2.9 0.3 -0.8
v -2.9 0.4 -0.8
v -2.8 0.3 -0.8
v -2.8 0.4 -0.8
v -5.9 0.3 -0.9
v -5.9 0.4 -0.9
v -5.8 0.3 -0.9
v -5.8 0.4 -0.9
v -2.8 0.3 -0.9
v -2.8 0.4 -0.9
v -2.7 0.3 -0.9
v -2.7 0.4 -0.9
v -6 0.3 -1
v -6 0.4 -1
v -5.9 0.3 -1
v -5.9 0.4 -1
v -2.7 0.3 -1
v -2.7 0.4 -1
v -2.6 0.3 -1
v -2.6 0.4 -1
v -6 0.2 -1.1
v -6 0.4 -1.1
v -5.9 0.2 -1.1
v -5.9 0.4 -1.1
v -2.7 0.2 -1.1
v -2.7 0.4 -1.1
v -2.6 0.2 -1.1
v -2.6 0.4 -1.1
v -6 0.2 1.1
v -2.6 0.2 1.1
v -5.8 0.2 1
v -2.8 0.2 1
v -5.9 0.2 0.9
v -5.8 0.2 0.9
v -5.7 0.2 0.9
v -2.9 0.2 0.9
v -2.8 0.2 0.9
v -2.7 0.2 0.9
v -5.8 0.2 0.8
v -5.7 0.2 0.8
v -5.6 0.2 0.8
v -3 0.2 0.8
v -2.9 0.2 0.8
v -2.8 0.2 0.8
v -5.7 0.2 0.7
v -5.6 0.2 0.7
v -5.5 0.2 0.7
v -3.1 0.2 0.7
v -3 0.2 0.7
v -2.9 0.2 0.7
v -5.6 0.2 0.6
v -5.5 0.2 0.6
v -5.4 0.2 0.6
v -3.2 0.2 0.6
v -3.1 0.2 0.6
v -3 0.2 0.6
v -5.5 0.2 0.5
v -5.4 0.2 0.5
v -5.3 0.2 0.5
v -3.3 0.2 0.5
v -3.2 0.2 0.5
v -3.1 0.2 0.5
v -5.4 0.2 0.4
v -5.3 0.2 0.4
v -5.2 0.2 0.4
v -3.4 0.2 0.4
v -3.3 0.2 0.4
v -3.2 0.2 0.4
v -5.3 0.2 0.3
v -5.2 0.2 0.3
v -5.1 0.2 0.3
v -3.5 0.2 0.3
v -3.4 0.2 0.3
v -3.3 0.2 0.3
v -5.2 0.2 0.2
v -5.1 0.2 0.2
v -5 0.2 0.2
v -3.6 0.2 0.2
v -3.5 0.2 0.2
v -3.4 0.2 0.2
v -5.1 0.2 0.0999998
v -5 0.2 0.0999998
v -4.9 0.2 0.0999998
v -3.7 0.2 0.0999998
v -3.6 0.2 0.0999998
v -3.5 0.2 0.0999998
v -5 0.2 -2.08616e-007
v -4.9 0.2 -2.08616e-007
v -3.7 0.2 -2.08616e-007
v -3.6 0.2 -2.08616e-007
v -5 0.2 -0.1
v -4.9 0.2 -0.1
v -3.7 0.2 -0.1
v -3.6 0.2 -0.1
v -5.1 0.2 -0.2
v -5 0.2 -0.2
v -4.9 0.2 -0.2
v -3.7 0.2 -0.2
v -3.6 0.2 -0.2
v -3.5 0.2 -0.2
v -5.2 0.2 -0.3
v -5.1 0.2 -0.3
v -5 0.2 -0.3
v -3.6 0.2 -0.3
v -3.5 0.2 -0.3
v -3.4 0.2 -0.3
v -5.3 0.2 -0.4
v -5.2 0.2 -0.4
v -5.1 0.2 -0.4
v -3.5 0.2 -0.4
v -3.4 0.2 -0.4
v -3.3 0.2 -0.4
v -5.4 0.2 -0.5
v -5.3 0.2 -0.5
v -5.2 0.2 -0.5
v -3.4 0.2 -0.5
v -3.3 0.2 -0.5
v -3.2 0.2 -0.5
v -5.5 0.2 -0.6
v -5.4 0.2 -0.6
v -5.3 0.2 -0.6
v -3.3 0.2 -0.6
v -3.2 0.2 -0.6
v -3.1 0.2 -0.6
v -5.6 0.2 -0.7
v -5.5 0.2 -0.7
v -5.4 0.2 -0.7
v -3.2 0.2 -0.7
v -3.1 0.2 -0.7
v -3 0.2 -0.7
v -5.7 0.2 -0.8
v -5.6 0.2 -0.8
v -5.5 0.2 -0.8
v -3.1 0.2 -0.8
v -3 0.2 -0.8
v -2.9 0.2 -0.8
v -5.9 0.2 -0.9
v -5.7 0.2 -0.9
v -5.6 0.2 -0.9
v -3 0.2 -0.9
v -2.9 0.2 -0.9
v -2.7 0.2 -0.9
v -5.9 0.2 -1
v -5.7 0.2 -1
v -2.9 0.2 -1
v -2.7 0.2 -1
v -6 0.2 -1.1
v -5.9 0.2 -1.1
v -2.7 0.2 -1.1
v -2.6 0.2 -1.1
v -6 0.3 1.1
v -2.6 0.3 1.1
v -5.8 0.3 1
v -2.8 0.3 1
v -5.9 0.3 0.9
v -5.8 0.3 0.9
v -5.7 0.3 0.9
v -2.9 0.3 0.9
v -2.8 0.3 0.9
v -2.7 0.3 0.9
v -5.8 0.3 0.8
v -5.7 0.3 0.8
v -5.6 0.3 0.8
v -3 0.3 0.8
v -2.9 0.3 0.8
v -2.8 0.3 0.8
v -5.7 0.3 0.7
v -5.6 0.3 0.7
v -5.5 0.3 0.7
v -3.1 0.3 0.7
v -3 0.3 0.7
v -2.9 0.3 0.7
v -5.6 0.3 0.6
v -5.5 0.3 0.6
v -5.4 0.3 0.6
v -3.2 0.3 0.6
v -3.1 0.3 0.6
v -3 0.3 0.6
v -5.5 0.3 0.5
v -5.4 0.3 0.5
v -5.3 0.3 0.5
v -3.3 0.3 0.5
v -3.2 0.3 0.5
v -3.1 0.3 0.5
v -5.4 0.3 0.4
v -5.3 0.3 0.4
v -5.2 0.3 0.4
v -3.4 0.3 0.4
v -3.3 0.3 0.4
v -3.2 0.3 0.4
v -5.3 0.3 0.3
v -5.2 0.3 0.3
v -5.1 0.3 0.3
v -3.5 0.3 0.3
v -3.4 0.3 0.3
v -3.3 0.3 0.3
v -5.2 0.3 0.2
v -5.1 0.3 0.2
v -5 0.3 0.2
v -3.6 0.3 0.2
v -3.5 0.3 0.2
v -3.4 0.3 0.2
v -5.1 0.3 0.0999998
v -5 0.3 0.0999998
v -4.9 0.3 0.0999998
v -3.7 0.3 0.0999998
v -3.6 0.3 0.0999998
v -3.5 0.3 0.0999998
v -5 0.3 -2.08616e-007
v -4.9 0.3 -2.08616e-007
v -3.7 0.3 -2.08616e-007
v -3.6 0.3 -2.08616e-007
v -5.1 0.3 -0.1
v -5 0.3 -0.1
v -3.6 0.3 -0.1
v -3.5 0.3 -0.1
v -5.2 0.3 -0.2
v -5.1 0.3 -0.2
v -3.5 0.3 -0.2
v -3.4 0.3 -0.2
v -5.3 0.3 -0.3
v -5.2 0.3 -0.3
v -3.4 0.3 -0.3
v -3.3 0.3 -0.3
v -5.4 0.3 -0.4
v -5.3 0.3 -0.4
v -3.3 0.3 -0.4
v -3.2 0.3 -0.4
v -5.5 0.3 -0.5
v -5.4 0.3 -0.5
v -3.2 0.3 -0.5
v -3.1 0.3 -0.5
v -5.6 0.3 -0.6
v -5.5 0.3 -0.6
v -3.1 0.3 -0.6
v -3 0.3 -0.6
v -5.7 0.3 -0.7
v -5.6 0.3 -0.7
v -3 0.3 -0.7
v -2.9 0.3 -0.7
v -5.8 0.3 -0.8
v -5.7 0.3 -0.8
v -2.9 0.3 -0.8
v -2.8 0.3 -0.8
v -5.9 0.3 -0.9
v -5.8 0.3 -0.9
v -2.8 0.3 -0.9
v -2.7 0.3 -0.9
v -6 0.3 -1
v -5.9 0.3 -1
v -2.7 0.3 -1
v -2.6 0.3 -1
v -5 0.4 -2.08616e-007
v -3.6 0.4 -2.08616e-007
v -5.1 0.4 -0.1
v -5 0.4 -0.1
v -3.6 0.4 -0.1
v -3.5 0.4 -0.1
v -5.2 0.4 -0.2
v -5.1 0.4 -0.2
v -5 0.4 -0.2
v -3.6 0.4 -0.2
v -3.5 0.4 -0.2
v -3.4 0.4 -0.2
v -5.3 0.4 -0.3
v -5.2 0.4 -0.3
v -5.1 0.4 -0.3
v -3.5 0.4 -0.3
v -3.4 0.4 -0.3
v -3.3 0.4 -0.3
v -5.4 0.4 -0.4
v -5.3 0.4 -0.4
v -5.2 0.4 -0.4
v -3.4 0.4 -0.4
v -3.3 0.4 -0.4
v -3.2 0.4 -0.4
v -5.5 0.4 -0.5
v -5.4 0.4 -0.5
v -5.3 0.4 -0.5
v -3.3 0.4 -0.5
v -3.2 0.4 -0.5
v -3.1 0.4 -0.5
v -5.6 0.4 -0.6
v -5.5 0.4 -0.6
v -5.4 0.4 -0.6
v -3.2 0.4 -0.6
v -3.1 0.4 -0.6
v -3 0.4 -0.6
v -5.7 0.4 -0.7
v -5.6 0.4 -0.7
v -5.5 0.4 -0.7
v -3.1 0.4 -0.7
v -3 0.4 -0.7
v -2.9 0.4 -0.7
v -5.8 0.4 -0.8
v -5.7 0.4 -0.8
v -5.6 0.4 -0.8
v -3 0.4 -0.8
v -2.9 0.4 -0.8
v -2.8 0.4 -0.8
v -5.9 0.4 -0.9
v -5.8 0.4 -0.9
v -5.7 0.4 -0.9
v -2.9 0.4 -0.9
v -2.8 0.4 -0.9
v -2.7 0.4 -0.9
v -6 0.4 -1
v -5.9 0.4 -1
v -5.8 0.4 -1
v -2.8 0.4 -1
v -2.7 0.4 -1
v -2.6 0.4 -1
v -6 0.4 -1.1
v -5.9 0.4 -1.1
v -2.7 0.4 -1.1
v -2.6 0.4 -1.1

# faces
f 3/2/1 2/2/1 1/2/1
f 4/2/1 2/2/1 3/2/1
f 5/2/1 2/2/1 4/2/1
f 6/2/1 2/2/1 5/2/1
f 9/2/1 8/2/1 7/2/1
f 10/2/1 8/2/1 9/2/1
f 13/2/1 12/2/1 11/2/1
f 14/2/1 12/2/1 13/2/1
f 17/2/1 16/2/1 15/2/1
f 18/2/1 16/2/1 17/2/1
f 21/2/1 20/2/1 19/2/1
f 22/2/1 20/2/1 21/2/1
f 25/2/1 24/2/1 23/2/1
f 26/2/1 24/2/1 25/2/1
f 29/2/1 28/2/1 27/2/1
f 30/2/1 28/2/1 29/2/1
f 33/2/1 32/2/1 31/2/1
f 34/2/1 32/2/1 33/2/1
f 37/2/1 36/2/1 35/2/1
f 38/2/1 36/2/1 37/2/1
f 41/2/1 40/2/1 39/2/1
f 42/2/1 40/2/1 41/2/1
f 45/2/1 44/2/1 43/2/1
f 46/2/1 44/2/1 45/2/1
f 47/2/2 48/2/2 49/2/2
f 49/2/2 48/2/2 50/2/2
f 51/2/2 52/2/2 53/2/2
f 53/2/2 52/2/2 54/2/2
f 55/2/2 56/2/2 57/2/2
f 57/2/2 56/2/2 58/2/2
f 59/2/2 60/2/2 61/2/2
f 61/2/2 60/2/2 62/2/2
f 63/2/2 64/2/2 65/2/2
f 65/2/2 64/2/2 66/2/2
f 67/2/2 68/2/2 69/2/2
f 69/2/2 68/2/2 70/2/2
f 71/2/2 72/2/2 73/2/2
f 73/2/2 72/2/2 74/2/2
f 75/2/2 76/2/2 77/2/2
f 77/2/2 76/2/2 78/2/2
f 79/2/2 80/2/2 81/2/2
f 81/2/2 80/2/2 82/2/2
f 83/2/2 84/2/2 85/2/2
f 85/2/2 84/2/2 86/2/2
f 87/2/2 88/2/2 89/2/2
f 89/2/2 88/2/2 90/2/2
f 90/2/2 88/2/2 91/2/2
f 91/2/2 88/2/2 92/2/2
f 95/2/3 94/2/3 93/2/3
f 96/2/3 94/2/3 95/2/3
f 99/2/3 98/2/3 97/2/3
f 100/2/3 98/2/3 99/2/3
f 101/2/3 98/2/3 100/2/3
f 102/2/3 98/2/3 101/2/3
f 105/2/3 104/2/3 103/2/3
f 106/2/3 104/2/3 105/2/3
f 109/2/3 108/2/3 107/2/3
f 110/2/3 108/2/3 109/2/3
f 113/2/3 112/2/3 111/2/3
f 114/2/3 112/2/3 113/2/3
f 117/2/3 116/2/3 115/2/3
f 118/2/3 116/2/3 117/2/3
f 121/2/3 120/2/3 119/2/3
f 122/2/3 120/2/3 121/2/3
f 125/2/3 124/2/3 123/2/3
f 126/2/3 124/2/3 125/2/3
f 129/2/3 128/2/3 127/2/3
f 130/2/3 128/2/3 129/2/3
f 133/2/3 132/2/3 131/2/3
f 134/2/3 132/2/3 133/2/3
f 137/2/3 136/2/3 135/2/3
f 138/2/3 136/2/3 137/2/3
f 141/2/3 140/2/3 139/2/3
f 142/2/3 140/2/3 141/2/3
f 145/2/3 144/2/3 143/2/3
f 146/2/3 144/2/3 145/2/3
f 149/2/3 148/2/3 147/2/3
f 150/2/3 148/2/3 149/2/3
f 153/2/3 152/2/3 151/2/3
f 154/2/3 152/2/3 153/2/3
f 157/2/3 156/2/3 155/2/3
f 158/2/3 156/2/3 157/2/3
f 161/2/3 160/2/3 159/2/3
f 162/2/3 160/2/3 161/2/3
f 165/2/3 164/2/3 163/2/3
f 166/2/3 164/2/3 165/2/3
f 169/2/3 168/2/3 167/2/3
f 170/2/3 168/2/3 169/2/3
f 173/2/3 172/2/3 171/2/3
f 174/2/3 172/2/3 173/2/3
f 177/2/3 176/2/3 175/2/3
f 178/2/3 176/2/3 177/2/3
f 181/2/3 180/2/3 179/2/3
f 182/2/3 180/2/3 181/2/3
f 183/2/4 184/2/4 185/2/4
f 185/2/4 184/2/4 186/2/4
f 185/1/4 186/1/4 187/1/4
f 187/1/4 186/1/4 188/1/4
f 187/2/4 188/2/4 189/2/4
f 189/2/4 188/2/4 190/2/4
f 193/2/5 192/2/5 191/2/5
f 194/2/5 192/2/5 193/2/5
f 195/2/5 193/2/5 191/2/5
f 196/1/5 194/1/5 193/1/5
f 196/2/5 193/2/5 195/2/5
f 197/1/5 194/1/5 196/1/5
f 198/1/5 194/1/5 197/1/5
f 199/2/5 192/2/5 194/2/5
f 199/1/5 194/1/5 198/1/5
f 200/2/5 192/2/5 199/2/5
f 201/1/5 196/1/5 195/1/5
f 201/2/5 197/2/5 196/2/5
f 202/1/5 198/1/5 197/1/5
f 202/2/5 197/2/5 201/2/5
f 203/1/5 198/1/5 202/1/5
f 204/1/5 198/1/5 203/1/5
f 205/2/5 199/2/5 198/2/5
f 205/1/5 198/1/5 204/1/5
f 206/1/5 200/1/5 199/1/5
f 206/2/5 199/2/5 205/2/5
f 207/1/5 202/1/5 201/1/5
f 207/2/5 203/2/5 202/2/5
f 208/1/5 204/1/5 203/1/5
f 208/2/5 203/2/5 207/2/5
f 209/1/5 204/1/5 208/1/5
f 210/1/5 204/1/5 209/1/5
f 211/2/5 205/2/5 204/2/5
f 211/1/5 204/1/5 210/1/5
f 212/1/5 206/1/5 205/1/5
f 212/2/5 205/2/5 211/2/5
f 213/1/5 208/1/5 207/1/5
f 213/2/5 209/2/5 208/2/5
f 214/1/5 210/1/5 209/1/5
f 214/2/5 209/2/5 213/2/5
f 215/1/5 210/1/5 214/1/5
f 216/1/5 210/1/5 215/1/5
f 217/2/5 211/2/5 210/2/5
f 217/1/5 210/1/5 216/1/5
f 218/1/5 212/1/5 211/1/5
f 218/2/5 211/2/5 217/2/5
f 219/1/5 214/1/5 213/1/5
f 219/2/5 215/2/5 214/2/5
f 220/1/5 216/1/5 215/1/5
f 220/2/5 215/2/5 219/2/5
f 221/1/5 216/1/5 220/1/5
f 222/1/5 216/1/5 221/1/5
f 223/2/5 217/2/5 216/2/5
f 223/1/5 216/1/5 222/1/5
f 224/1/5 218/1/5 217/1/5
f 224/2/5 217/2/5 223/2/5
f 225/1/5 220/1/5 219/1/5
f 225/2/5 221/2/5 220/2/5
f 226/1/5 222/1/5 221/1/5
f 226/2/5 221/2/5 225/2/5
f 227/1/5 222/1/5 226/1/5
f 228/1/5 222/1/5 227/1/5
f 229/2/5 223/2/5 222/2/5
f 229/1/5 222/1/5 228/1/5
f 230/1/5 224/1/5 223/1/5
f 230/2/5 223/2/5 229/2/5
f 231/1/5 226/1/5 225/1/5
f 231/2/5 227/2/5 226/2/5
f 232/1/5 228/1/5 227/1/5
f 232/2/5 227/2/5 231/2/5
f 233/1/5 228/1/5 232/1/5
f 234/1/5 228/1/5 233/1/5
f 235/2/5 229/2/5 228/2/5
f 235/1/5 228/1/5 234/1/5
f 236/1/5 230/1/5 229/1/5
f 236/2/5 229/2/5 235/2/5
f 237/1/5 232/1/5 231/1/5
f 237/2/5 233/2/5 232/2/5
f 238/1/5 234/1/5 233/1/5
f 238/2/5 233/2/5 237/2/5
f 239/1/5 234/1/5 238/1/5
f 240/1/5 234/1/5 239/1/5
f 241/2/5 235/2/5 234/2/5
f 241/1/5 234/1/5 240/1/5
f 242/1/5 236/1/5 235/1/5
f 242/2/5 235/2/5 241/2/5
f 243/1/5 238/1/5 237/1/5
f 243/2/5 239/2/5 238/2/5
f 244/1/5 240/1/5 239/1/5
f 244/2/5 239/2/5 243/2/5
f 245/1/5 240/1/5 244/1/5
f 246/1/5 240/1/5 245/1/5
f 247/2/5 241/2/5 240/2/5
f 247/1/5 240/1/5 246/1/5
f 248/1/5 242/1/5 241/1/5
f 248/2/5 241/2/5 247/2/5
f 249/1/5 244/1/5 243/1/5
f 249/2/5 245/2/5 244/2/5
f 250/1/5 246/1/5 245/1/5
f 250/2/5 245/2/5 249/2/5
f 251/2/5 247/2/5 246/2/5
f 251/1/5 246/1/5 250/1/5
f 252/1/5 248/1/5 247/1/5
f 252/2/5 247/2/5 251/2/5
f 253/1/5 249/1/5 243/1/5
f 253/1/5 250/1/5 249/1/5
f 254/2/5 251/2/5 250/2/5
f 254/1/5 250/1/5 253/1/5
f 255/1/5 252/1/5 251/1/5
f 255/2/5 251/2/5 254/2/5
f 256/1/5 248/1/5 252/1/5
f 256/1/5 252/1/5 255/1/5
f 257/1/5 243/1/5 237/1/5
f 257/1/5 253/1/5 243/1/5
f 258/2/5 254/2/5 253/2/5
f 258/1/5 253/1/5 257/1/5
f 259/1/5 255/1/5 254/1/5
f 259/2/5 254/2/5 258/2/5
f 260/2/5 256/2/5 255/2/5
f 260/1/5 255/1/5 259/1/5
f 261/1/5 248/1/5 256/1/5
f 261/2/5 256/2/5 260/2/5
f 262/1/5 242/1/5 248/1/5
f 262/1/5 248/1/5 261/1/5
f 263/1/5 237/1/5 231/1/5
f 263/1/5 257/1/5 237/1/5
f 264/2/5 258/2/5 257/2/5
f 264/1/5 257/1/5 263/1/5
f 265/1/5 260/1/5 259/1/5
f 265/2/5 258/2/5 264/2/5
f 265/1/5 261/1/5 260/1/5
f 265/1/5 259/1/5 258/1/5
f 266/2/5 262/2/5 261/2/5
f 266/1/5 261/1/5 265/1/5
f 267/1/5 242/1/5 262/1/5
f 267/2/5 262/2/5 266/2/5
f 268/1/5 236/1/5 242/1/5
f 268/1/5 242/1/5 267/1/5
f 269/1/5 231/1/5 225/1/5
f 269/1/5 263/1/5 231/1/5
f 270/2/5 264/2/5 263/2/5
f 270/1/5 263/1/5 269/1/5
f 271/1/5 266/1/5 265/1/5
f 271/2/5 264/2/5 270/2/5
f 271/1/5 267/1/5 266/1/5
f 271/1/5 265/1/5 264/1/5
f 272/2/5 268/2/5 267/2/5
f 272/1/5 267/1/5 271/1/5
f 273/1/5 236/1/5 268/1/5
f 273/2/5 268/2/5 272/2/5
f 274/1/5 230/1/5 236/1/5
f 274/1/5 236/1/5 273/1/5
f 275/1/5 225/1/5 219/1/5
f 275/1/5 269/1/5 225/1/5
f 276/2/5 270/2/5 269/2/5
f 276/1/5 269/1/5 275/1/5
f 277/1/5 272/1/5 271/1/5
f 277/2/5 270/2/5 276/2/5
f 277/1/5 273/1/5 272/1/5
f 277/1/5 271/1/5 270/1/5
f 278/2/5 274/2/5 273/2/5
f 278/1/5 273/1/5 277/1/5
f 279/1/5 230/1/5 274/1/5
f 279/2/5 274/2/5 278/2/5
f 280/1/5 224/1/5 230/1/5
f 280/1/5 230/1/5 279/1/5
f 281/1/5 219/1/5 213/1/5
f 281/1/5 275/1/5 219/1/5
f 282/2/5 276/2/5 275/2/5
f 282/1/5 275/1/5 281/1/5
f 283/1/5 278/1/5 277/1/5
f 283/2/5 276/2/5 282/2/5
f 283/1/5 279/1/5 278/1/5
f 283/1/5 277/1/5 276/1/5
f 284/2/5 280/2/5 279/2/5
f 284/1/5 279/1/5 283/1/5
f 285/1/5 224/1/5 280/1/5
f 285/2/5 280/2/5 284/2/5
f 286/1/5 218/1/5 224/1/5
f 286/1/5 224/1/5 285/1/5
f 287/1/5 213/1/5 207/1/5
f 287/1/5 281/1/5 213/1/5
f 288/2/5 282/2/5 281/2/5
f 288/1/5 281/1/5 287/1/5
f 289/1/5 284/1/5 283/1/5
f 289/2/5 282/2/5 288/2/5
f 289/1/5 285/1/5 284/1/5
f 289/1/5 283/1/5 282/1/5
f 290/2/5 286/2/5 285/2/5
f 290/1/5 285/1/5 289/1/5
f 291/1/5 218/1/5 286/1/5
f 291/2/5 286/2/5 290/2/5
f 292/1/5 212/1/5 218/1/5
f 292/1/5 218/1/5 291/1/5
f 293/1/5 207/1/5 201/1/5
f 293/1/5 287/1/5 207/1/5
f 294/2/5 288/2/5 287/2/5
f 294/1/5 287/1/5 293/1/5
f 295/1/5 290/1/5 289/1/5
f 295/2/5 288/2/5 294/2/5
f 295/1/5 291/1/5 290/1/5
f 295/1/5 289/1/5 288/1/5
f 296/2/5 292/2/5 291/2/5
f 296/1/5 291/1/5 295/1/5
f 297/1/5 212/1/5 292/1/5
f 297/2/5 292/2/5 296/2/5
f 298/1/5 206/1/5 212/1/5
f 298/1/5 212/1/5 297/1/5
f 299/1/5 201/1/5 195/1/5
f 299/2/5 195/2/5 191/2/5
f 299/1/5 293/1/5 201/1/5
f 300/2/5 294/2/5 293/2/5
f 300/1/5 293/1/5 299/1/5
f 301/1/5 296/1/5 295/1/5
f 301/2/5 294/2/5 300/2/5
f 301/1/5 295/1/5 294/1/5
f 301/1/5 297/1/5 296/1/5
f 302/2/5 298/2/5 297/2/5
f 302/1/5 297/1/5 301/1/5
f 303/1/5 206/1/5 298/1/5
f 303/2/5 298/2/5 302/2/5
f 304/2/5 192/2/5 200/2/5
f 304/1/5 206/1/5 303/1/5
f 304/1/5 200/1/5 206/1/5
f 305/2/5 299/2/5 191/2/5
f 305/2/5 300/2/5 299/2/5
f 306/1/5 302/1/5 301/1/5
f 306/2/5 300/2/5 305/2/5
f 306/1/5 301/1/5 300/1/5
f 306/1/5 303/1/5 302/1/5
f 307/2/5 304/2/5 303/2/5
f 307/1/5 303/1/5 306/1/5
f 308/2/5 192/2/5 304/2/5
f 308/2/5 304/2/5 307/2/5
f 309/2/5 305/2/5 191/2/5
f 310/1/5 306/1/5 305/1/5
f 310/2/5 305/2/5 309/2/5
f 310/1/5 307/1/5 306/1/5
f 310/1/5 308/1/5 307/1/5
f 311/2/5 192/2/5 308/2/5
f 311/1/5 308/1/5 310/1/5
f 312/2/5 192/2/5 311/2/5
f 313/2/6 314/2/6 315/2/6
f 315/2/6 314/2/6 316/2/6
f 313/2/6 315/2/6 317/2/6
f 315/1/6 316/1/6 318/1/6
f 317/2/6 315/2/6 318/2/6
f 318/1/6 316/1/6 319/1/6
f 319/1/6 316/1/6 320/1/6
f 316/2/6 314/2/6 321/2/6
f 320/1/6 316/1/6 321/1/6
f 321/2/6 314/2/6 322/2/6
f 317/1/6 318/1/6 323/1/6
f 318/2/6 319/2/6 323/2/6
f 319/1/6 320/1/6 324/1/6
f 323/2/6 319/2/6 324/2/6
f 324/1/6 320/1/6 325/1/6
f 325/1/6 320/1/6 326/1/6
f 320/2/6 321/2/6 327/2/6
f 326/1/6 320/1/6 327/1/6
f 321/1/6 322/1/6 328/1/6
f 327/2/6 321/2/6 328/2/6
f 323/1/6 324/1/6 329/1/6
f 324/2/6 325/2/6 329/2/6
f 325/1/6 326/1/6 330/1/6
f 329/2/6 325/2/6 330/2/6
f 330/1/6 326/1/6 331/1/6
f 331/1/6 326/1/6 332/1/6
f 326/2/6 327/2/6 333/2/6
f 332/1/6 326/1/6 333/1/6
f 327/1/6 328/1/6 334/1/6
f 333/2/6 327/2/6 334/2/6
f 329/1/6 330/1/6 335/1/6
f 330/2/6 331/2/6 335/2/6
f 331/1/6 332/1/6 336/1/6
f 335/2/6 331/2/6 336/2/6
f 336/1/6 332/1/6 337/1/6
f 337/1/6 332/1/6 338/1/6
f 332/2/6 333/2/6 339/2/6
f 338/1/6 332/1/6 339/1/6
f 333/1/6 334/1/6 340/1/6
f 339/2/6 333/2/6 340/2/6
f 335/1/6 336/1/6 341/1/6
f 336/2/6 337/2/6 341/2/6
f 337/1/6 338/1/6 342/1/6
f 341/2/6 337/2/6 342/2/6
f 342/1/6 338/1/6 343/1/6
f 343/1/6 338/1/6 344/1/6
f 338/2/6 339/2/6 345/2/6
f 344/1/6 338/1/6 345/1/6
f 339/1/6 340/1/6 346/1/6
f 345/2/6 339/2/6 346/2/6
f 341/1/6 342/1/6 347/1/6
f 342/2/6 343/2/6 347/2/6
f 343/1/6 344/1/6 348/1/6
f 347/2/6 343/2/6 348/2/6
f 348/1/6 344/1/6 349/1/6
f 349/1/6 344/1/6 350/1/6
f 344/2/6 345/2/6 351/2/6
f 350/1/6 344/1/6 351/1/6
f 345/1/6 346/1/6 352/1/6
f 351/2/6 345/2/6 352/2/6
f 347/1/6 348/1/6 353/1/6
f 348/2/6 349/2/6 353/2/6
f 349/1/6 350/1/6 354/1/6
f 353/2/6 349/2/6 354/2/6
f 354/1/6 350/1/6 355/1/6
f 355/1/6 350/1/6 356/1/6
f 350/2/6 351/2/6 357/2/6
f 356/1/6 350/1/6 357/1/6
f 351/1/6 352/1/6 358/1/6
f 357/2/6 351/2/6 358/2/6
f 353/1/6 354/1/6 359/1/6
f 354/2/6 355/2/6 359/2/6
f 355/1/6 356/1/6 360/1/6
f 359/2/6 355/2/6 360/2/6
f 360/1/6 356/1/6 361/1/6
f 361/1/6 356/1/6 362/1/6
f 356/2/6 357/2/6 363/2/6
f 362/1/6 356/1/6 363/1/6
f 357/1/6 358/1/6 364/1/6
f 363/2/6 357/2/6 364/2/6
f 359/1/6 360/1/6 365/1/6
f 360/2/6 361/2/6 365/2/6
f 361/1/6 362/1/6 366/1/6
f 365/2/6 361/2/6 366/2/6
f 366/1/6 362/1/6 367/1/6
f 367/1/6 362/1/6 368/1/6
f 362/2/6 363/2/6 369/2/6
f 368/1/6 362/1/6 369/1/6
f 363/1/6 364/1/6 370/1/6
f 369/2/6 363/2/6 370/2/6
f 365/1/6 366/1/6 371/1/6
f 366/2/6 367/2/6 371/2/6
f 367/1/6 368/1/6 372/1/6
f 371/2/6 367/2/6 372/2/6
f 368/2/6 369/2/6 373/2/6
f 372/1/6 368/1/6 373/1/6
f 369/1/6 370/1/6 374/1/6
f 373/2/6 369/2/6 374/2/6
f 359/1/6 365/1/6 375/1/6
f 365/1/6 371/1/6 375/1/6
f 375/1/6 371/1/6 376/1/6
f 374/1/6 370/1/6 377/1/6
f 370/1/6 364/1/6 378/1/6
f 377/1/6 370/1/6 378/1/6
f 353/1/6 359/1/6 379/1/6
f 359/1/6 375/1/6 379/1/6
f 379/1/6 375/1/6 380/1/6
f 378/1/6 364/1/6 381/1/6
f 364/1/6 358/1/6 382/1/6
f 381/1/6 364/1/6 382/1/6
f 347/1/6 353/1/6 383/1/6
f 353/1/6 379/1/6 383/1/6
f 383/1/6 379/1/6 384/1/6
f 382/1/6 358/1/6 385/1/6
f 358/1/6 352/1/6 386/1/6
f 385/1/6 358/1/6 386/1/6
f 341/1/6 347/1/6 387/1/6
f 347/1/6 383/1/6 387/1/6
f 387/1/6 383/1/6 388/1/6
f 386/1/6 352/1/6 389/1/6
f 352/1/6 346/1/6 390/1/6
f 389/1/6 352/1/6 390/1/6
f 335/1/6 341/1/6 391/1/6
f 341/1/6 387/1/6 391/1/6
f 391/1/6 387/1/6 392/1/6
f 390/1/6 346/1/6 393/1/6
f 346/1/6 340/1/6 394/1/6
f 393/1/6 346/1/6 394/1/6
f 329/1/6 335/1/6 395/1/6
f 335/1/6 391/1/6 395/1/6
f 395/1/6 391/1/6 396/1/6
f 394/1/6 340/1/6 397/1/6
f 340/1/6 334/1/6 398/1/6
f 397/1/6 340/1/6 398/1/6
f 323/1/6 329/1/6 399/1/6
f 329/1/6 395/1/6 399/1/6
f 399/1/6 395/1/6 400/1/6
f 398/1/6 334/1/6 401/1/6
f 334/1/6 328/1/6 402/1/6
f 401/1/6 334/1/6 402/1/6
f 317/1/6 323/1/6 403/1/6
f 323/1/6 399/1/6 403/1/6
f 403/1/6 399/1/6 404/1/6
f 402/1/6 328/1/6 405/1/6
f 328/1/6 322/1/6 406/1/6
f 405/1/6 328/1/6 406/1/6
f 313/2/6 317/2/6 407/2/6
f 317/1/6 403/1/6 407/1/6
f 407/1/6 403/1/6 408/1/6
f 406/1/6 322/1/6 409/1/6
f 322/2/6 314/2/6 410/2/6
f 409/1/6 322/1/6 410/1/6
f 313/2/6 407/2/6 411/2/6
f 411/2/6 407/2/6 412/2/6
f 410/2/6 314/2/6 413/2/6
f 413/2/6 314/2/6 414/2/6
f 415/2/6 416/2/6 418/2/6
f 418/2/6 416/2/6 419/2/6
f 417/2/6 418/2/6 422/2/6
f 418/1/6 419/1/6 423/1/6
f 422/2/6 418/2/6 423/2/6
f 419/2/6 420/2/6 424/2/6
f 423/1/6 419/1/6 424/1/6
f 424/2/6 420/2/6 425/2/6
f 421/2/6 422/2/6 428/2/6
f 422/1/6 423/1/6 429/1/6
f 423/1/6 424/1/6 429/1/6
f 428/2/6 422/2/6 429/2/6
f 424/1/6 425/1/6 429/1/6
f 425/2/6 426/2/6 430/2/6
f 429/1/6 425/1/6 430/1/6
f 430/2/6 426/2/6 431/2/6
f 427/2/6 428/2/6 434/2/6
f 428/1/6 429/1/6 435/1/6
f 429/1/6 430/1/6 435/1/6
f 434/2/6 428/2/6 435/2/6
f 430/1/6 431/1/6 435/1/6
f 431/2/6 432/2/6 436/2/6
f 435/1/6 431/1/6 436/1/6
f 436/2/6 432/2/6 437/2/6
f 433/2/6 434/2/6 440/2/6
f 434/1/6 435/1/6 441/1/6
f 435/1/6 436/1/6 441/1/6
f 440/2/6 434/2/6 441/2/6
f 436/1/6 437/1/6 441/1/6
f 437/2/6 438/2/6 442/2/6
f 441/1/6 437/1/6 442/1/6
f 442/2/6 438/2/6 443/2/6
f 439/2/6 440/2/6 446/2/6
f 440/1/6 441/1/6 447/1/6
f 441/1/6 442/1/6 447/1/6
f 446/2/6 440/2/6 447/2/6
f 442/1/6 443/1/6 447/1/6
f 443/2/6 444/2/6 448/2/6
f 447/1/6 443/1/6 448/1/6
f 448/2/6 444/2/6 449/2/6
f 445/2/6 446/2/6 452/2/6
f 446/1/6 447/1/6 453/1/6
f 447/1/6 448/1/6 453/1/6
f 452/2/6 446/2/6 453/2/6
f 448/1/6 449/1/6 453/1/6
f 449/2/6 450/2/6 454/2/6
f 453/1/6 449/1/6 454/1/6
f 454/2/6 450/2/6 455/2/6
f 451/2/6 452/2/6 458/2/6
f 452/1/6 453/1/6 459/1/6
f 453/1/6 454/1/6 459/1/6
f 458/2/6 452/2/6 459/2/6
f 454/1/6 455/1/6 459/1/6
f 455/2/6 456/2/6 460/2/6
f 459/1/6 455/1/6 460/1/6
f 460/2/6 456/2/6 461/2/6
f 457/2/6 458/2/6 464/2/6
f 458/1/6 459/1/6 465/1/6
f 459/1/6 460/1/6 465/1/6
f 464/2/6 458/2/6 465/2/6
f 460/1/6 461/1/6 465/1/6
f 461/2/6 462/2/6 466/2/6
f 465/1/6 461/1/6 466/1/6
f 466/2/6 462/2/6 467/2/6
f 463/2/6 464/2/6 470/2/6
f 464/1/6 465/1/6 471/1/6
f 465/1/6 466/1/6 471/1/6
f 470/2/6 464/2/6 471/2/6
f 466/1/6 467/1/6 471/1/6
f 467/2/6 468/2/6 472/2/6
f 471/1/6 467/1/6 472/1/6
f 472/2/6 468/2/6 473/2/6
f 469/2/6 470/2/6 475/2/6
f 470/1/6 471/1/6 476/1/6
f 475/2/6 470/2/6 476/2/6
f 471/1/6 472/1/6 476/1/6
f 472/1/6 473/1/6 476/1/6
f 473/2/6 474/2/6 477/2/6
f 476/1/6 473/1/6 477/1/6
f 477/2/6 474/2/6 478/2/6
